<svg xmlns="http://www.w3.org/2000/svg" width="128" height="128" viewBox="560 430 900 800" role="img" aria-label="sc0red Services mark on ink">
  <path
    fill="#05BF7B"
    d="M 1031.14 1139.86 C 1045.99 1015.57 1067.58 894.351 1117.11 778.411 C 1121.18 768.877 1131.67 736.799 1139.58 731.795 C 1218.35 681.986 1300.5 638.074 1387.38 603.968 C 1403.93 597.471 1419.7 589.348 1436.71 583.299 L 1435.78 584.521 C 1426.86 596.093 1404.06 617.498 1392.6 628.947 C 1370.01 651.413 1348.12 674.577 1326.97 698.403 C 1199.8 842.83 1102.57 1007.29 1033.3 1186.49 C 1032.32 1189.02 1030.72 1191.55 1028.15 1192.57 L 1026 1192.29 C 1030.82 1188.57 1029.69 1163.86 1029.74 1156.88 C 1030.29 1151.22 1030.76 1145.54 1031.14 1139.86 z"
  />
  <path
    fill="#2475F5"
    d="M 608.679 582.341 C 644.509 600.029 689.27 615.745 726.751 632.985 C 791.73 662.871 851.054 696.991 911.67 734.764 C 917.968 748.417 925.015 767.03 930.788 781.24 C 960.852 853.598 983.068 928.973 997.054 1006.07 C 1004.59 1047.48 1009.62 1090.05 1014.4 1131.86 L 1016.48 1157.6 C 1016.5 1169.08 1016.75 1180.55 1017.23 1192.02 C 1012.98 1186.67 999.469 1150.66 996.177 1142.6 C 988.628 1124.34 980.787 1106.19 972.657 1088.17 C 951.066 1041.36 927.373 995.553 901.649 950.882 C 844.7 852.007 777.022 759.714 699.842 675.675 C 671.637 644.831 634.178 611.913 608.679 582.341 z"
  />
  <path
    fill="#FFFFFF"
    d="M 1023.13 454.863 C 1026.92 459.101 1045.25 495.765 1049.31 503.007 C 1079.52 556.945 1108.41 612.52 1138.55 666.381 C 1102.38 642.939 1057.9 611.726 1022.88 586.2 C 986.129 613.491 946.74 639.873 908.799 665.541 C 921.441 637.392 944.943 597.611 960.203 569.574 C 973.739 544.126 987.533 518.817 1001.58 493.649 C 1008.42 481.198 1015.77 466.784 1023.13 454.863 z"
  />
</svg>
